<svg width="480" height="480" fill="none" xmlns="http://www.w3.org/2000/svg"><circle opacity=".3" cx="240" cy="240" r="240" fill="#fff"/><path d="M404.643 383.564c-2.526-.945-3.233-1.871-2.633-3.449.278-.731.812-1.33 1.187-1.33s2.015.862 3.645 1.916c1.63 1.053 3.623 2.154 4.429 2.447.303.11.23.559-.093.566l-.245.005c-.991.022-2.446.133-3.232.247-.787.114-2.163-.067-3.058-.402Zm-5.734-4.853c-.476-.266-1.269-.356-1.763-.199-.621.197-1.101-.096-1.561-.956-.366-.682-1.02-1.363-1.455-1.513-.998-.343-3.09-3.732-4.254-6.891-.588-1.596-1.379-2.699-2.318-3.233-1.666-.947-1.785-1.377-.496-1.786 1.476-.468 1.75-3.069.508-4.812-.592-.832-.904-1.81-.726-2.275.211-.549-.37-1.512-1.778-2.947-1.778-1.81-2.106-2.469-2.186-4.377-.051-1.235-.352-2.557-.668-2.938-.398-.48-.48-2.202-.265-5.607.233-3.69.098-5.967-.544-9.141-.954-4.714-1.441-13.497-1.193-21.51.052-1.71-.169-4.057-.493-5.216-.788-2.823-4.415-6.386-8.897-8.741-3.206-1.684-3.657-2.116-4.911-4.704-.758-1.567-2.209-3.909-3.223-5.204-1.014-1.295-2.116-3.198-2.45-4.227-1.058-3.269-2.923-6.552-4.195-7.385-.677-.444-1.448-1.597-1.715-2.562-.431-1.563-.318-1.999 1.033-3.962 1.464-2.129 1.482-2.215.492-2.474-2.432-.636-1.409-3.886 2.956-9.394 2.901-3.661 3.751-6.45 2.947-9.671-.306-1.228-.58-2.512-.609-2.854-.029-.342-.247-.622-.485-.622-.237 0-.191-.449.102-.997.452-.845.338-1.086-.749-1.581-1.583-.721-3.974-.008-3.984 1.189-.011 1.435-.642 1.54-2.723.456-1.114-.581-2.272-1.056-2.572-1.056-.3 0-1.469-.795-2.596-1.766a139.315 139.315 0 0 0-2.671-2.258c-.342-.27-.622-1.008-.622-1.638 0-.631-.439-1.544-.976-2.03-.537-.486-1.233-1.66-1.546-2.61-.412-1.248-.72-1.575-1.113-1.183-.819.819-2.033.664-4.977-.638-1.54-.681-3.143-1.844-3.784-2.743-.611-.859-1.78-1.907-2.596-2.329-1.347-.697-1.684-.691-3.647.058a5.354 5.354 0 0 1-4.245-.183l-4.552-2.206c-4.081-1.977-7.248-3.863-8.229-4.901-1.521-1.608-1.57-1.783-1.064-3.777.463-1.826.385-2.391-.624-4.474-.635-1.312-2.022-3.326-3.082-4.476-1.06-1.151-1.808-2.287-1.66-2.525.147-.238-.6-1.843-1.66-3.567-1.205-1.958-2.055-4.056-2.266-5.591-.27-1.968-.586-2.57-1.584-3.025-1.059-.482-1.355-.421-1.961.407-.853 1.166-.61 2.397 1.277 6.475.767 1.657 1.559 4.113 1.761 5.459.202 1.345.798 3.29 1.324 4.322 1.248 2.445.442 2.402-1.525-.081-1.16-1.465-1.473-2.268-1.243-3.187.246-.98.004-1.453-1.202-2.344-1.828-1.352-2.216-2.224-1.544-3.48.392-.731.212-1.534-.782-3.497-1.011-1.994-1.222-2.959-.972-4.44.409-2.42-.677-4.61-2.701-5.449-1.169-.484-1.572-1.025-1.81-2.432a51.628 51.628 0 0 0-.717-3.422c-.235-.923-.218-1.732.04-1.891.248-.153.086-.836-.36-1.516-.657-1.003-.702-1.478-.237-2.498.316-.693.435-1.486.265-1.761-.17-.275.254-1.098.942-1.828s1.605-2.186 2.036-3.235c.432-1.05 1.762-2.995 2.957-4.323 1.194-1.328 2.708-3.655 3.364-5.171.911-2.103 1.445-2.757 2.257-2.764.586-.004 1.033.272.995.614-.158 1.424.969.985 2.234-.871.746-1.094 1.149-2.064.895-2.155-.255-.091-.462-.503-.462-.915 0-.412-1.03-1.749-2.288-2.972-2.088-2.029-2.222-2.298-1.528-3.064.563-.622.629-1.078.254-1.748-.659-1.177.381-3.814 1.508-3.825.466-.004.599-.163.313-.373-.642-.471-.932-1.541-.842-3.101.144-2.49-.401-3.532-2.253-4.305-.999-.417-2.523-1.298-3.386-1.957-.864-.659-1.96-1.198-2.436-1.198s-2.638-.452-4.805-1.006c-3.485-.889-4.099-.924-5.306-.303-2.501 1.287-5.151 1.812-6.231 1.234-.811-.434-1.695-.166-4.779 1.447-2.081 1.088-4.567 2.148-5.524 2.354-.958.207-2.79.904-4.072 1.55-3.637 1.832-8.846 3.679-10.287 3.647-.93-.02-.301-.428 2.173-1.409 4.205-1.668 8.526-3.839 8.926-4.486.492-.796-.577-1.082-1.86-.497-.945.43-1.528.39-2.618-.181a.824.824 0 0 1 .004-1.462l.119-.062c1.725-.892 2.267-1.901 1.871-3.479-.384-1.529 1.732-2.653 6.29-3.34 2.45-.369 4.312-.984 5.565-1.838 2.211-1.504 1.831-2.642-.552-1.654-1.129.467-1.951.472-3.622.022-2.03-.547-2.102-.625-1.194-1.289 1.52-1.111 4.663-1.779 6.728-1.43 1.307.22 2.377.066 3.476-.502l.232-.12c.68-.352.834-1.256.31-1.813-.574-.612-1.045-1.244-1.045-1.405 0-.462 2.995-1.384 4.492-1.384.747 0 2.796-.541 4.552-1.202 1.757-.661 5.809-1.564 9.006-2.006 5.185-.717 6.283-.726 10.17-.081 2.397.397 5.701.871 7.343 1.053 1.641.182 4.546.759 6.456 1.283 4.434 1.217 7.323 1.202 12.277-.063 2.187-.558 4.398-.882 4.913-.718.515.163 1.39.054 1.945-.243.765-.409 1.358-.36 2.449.204.986.51 2.202.655 3.859.462 1.748-.205 3.278.007 5.512.762 1.702.575 3.591 1.046 4.199 1.046 1.077 0 1.081.018.14.71-.923.679-.925.727-.059 1.062.499.193 2.229.213 3.846.044 2.92-.305 2.945-.296 3.76 1.278l.035.069a1.108 1.108 0 0 0 1.849.182c.611-.767 2.064-1.636 3.416-2.042 2.043-.615 2.663-.613 4.715.015 1.448.444 3.182.605 4.48.418 1.653-.239 2.421-.09 3.499.678 1.362.969 1.4.97 2.608.034.674-.523 2.061-1.183 3.082-1.467 2.445-.681 3.274-2.133 1.806-3.161-1.039-.727-.993-.782 1.736-2.121 2.035-.998 2.952-1.225 3.349-.828.396.397.392.833-.015 1.594-.695 1.298.17 3.259 1.253 2.843.389-.149 1.035-.146 1.435.008.629.241.618.445-.074 1.502-1.912 2.918 2.375 2.091 5.278-1.018 1.18-1.264 3.008-1.648 4.722-.99 1.106.425 1.003.772-.83 2.782-2.184 2.394-3.302 2.884-6.582 2.884-1.586 0-3.457.343-4.33.794-1.207.625-1.796.677-2.748.243-1.775-.809-2.393-.136-1.12 1.22a.965.965 0 0 1-.44 1.59l-.641.182c-1.193.338-3.176.648-4.407.688-1.785.058-2.239.252-2.242.958-.002.603-.871 1.239-2.735 2.001-6.042 2.47-11.168 6.922-9.312 8.09.348.218.9 1.007 1.226 1.751.377.858 1.102 1.456 1.979 1.632.762.152 2.728.938 4.369 1.746 1.642.808 3.656 1.616 4.477 1.795 2.259.492 2.279.544 1.227 3.213-.901 2.284-.919 2.61-.221 3.959.418.809 1.034 1.462 1.369 1.453 1.63-.048 3.158-1.552 4.107-4.043.905-2.374 1.318-2.817 3.915-4.204 3.834-2.048 5.428-4.064 5.003-6.329-.276-1.475-.133-1.821 1.13-2.72.795-.566 1.849-1.922 2.341-3.013 1.099-2.437 2.866-3.282 5.845-2.795 2.641.431 5.766 2.109 6.143 3.297.155.489.026 1.365-.286 1.948-.473.884-.383 1.257.535 2.234a2.129 2.129 0 0 0 2.532.432l.371-.192c.99-.513 2.577-1.514 3.526-2.224l.79-.592a.874.874 0 0 1 1.342.396c.223.603.286 1.407.14 1.787-.145.379-.032 1.124.252 1.655.32.597.345 1.273.065 1.772-.314.563-.104 1.417.696 2.826 1.147 2.019 1.147 2.021.14 2.726-1.325.928-.475 1.913.98 1.134 1.444-.773 3.098-.672 4.118.251 1.507 1.364.254 2.996-3.748 4.878-4.352 2.047-6.292 2.453-11.972 2.503-4.195.037-4.751.171-8.829 2.126-2.393 1.147-4.352 2.283-4.352 2.524 0 1.026.754.936 3.648-.432 1.705-.807 3.903-1.451 4.949-1.451 1.788-.001 1.853.054 1.295 1.098-.323.604-1.021 1.449-1.55 1.877-.832.674-.88.958-.36 2.101.781 1.713 2.821 2.538 5.26 2.127l.152-.026c.422-.071.646.48.294.723-.816.562-2.159 1.168-2.985 1.347-.826.178-2.523.839-3.772 1.468-1.268.639-2.541.977-2.883.765-.788-.486.043-1.216 2.601-2.285 2.274-.95 1.91-1.959-.541-1.499-.954.179-4.05 1.345-6.88 2.591-4.416 1.945-5.186 2.458-5.443 3.629-.316 1.438-1.394 2.119-5.185 3.272-1.209.368-2.776 1.257-3.481 1.976-.706.718-2.057 1.794-3.003 2.391-.946.596-1.852 1.641-2.013 2.322-.265 1.122-.327 1.148-.659.284-.622-1.619-1.56-.036-1.614 2.725-.055 2.829-1.489 4.759-4.635 6.237-3.225 1.515-7.814 5.095-8.743 6.822-.821 1.524-.856 2.118-.35 6.035.472 3.655.444 4.572-.177 5.773-.464.896-1.005 1.325-1.455 1.152-1.067-.41-2.373-4.801-2.007-6.751.254-1.354.086-1.867-.923-2.816-.814-.764-1.565-1.054-2.203-.852-.533.169-2.039-.151-3.349-.713-2.008-.86-2.648-.932-4.081-.46-.972.321-1.937 1.082-2.253 1.775-.471 1.032-.782 1.165-2.081.885-.84-.18-2.132-.637-2.871-1.014-1.819-.93-2.838-.865-4.881.31-.954.548-2.899 1.597-4.323 2.331-1.636.844-2.761 1.804-3.056 2.609-.256.701-1.173 3.435-2.038 6.074l-.575 1.758a10.905 10.905 0 0 0-.193 6.138c1.474 5.691 3.526 7.395 7.802 6.478 3.223-.691 5.159-2.091 5.87-4.247.452-1.369.939-1.822 2.398-2.227 2.196-.61 3.113-.632 3.957-.097.696.441.451 1.168-2.665 7.915-2.138 4.629-1.984 5.043 1.679 4.514 3.337-.481 6.388-.112 6.745.817.139.362-.087 2.805-.503 5.428-.742 4.694-.737 4.799.332 6.528.598.967 1.718 2.085 2.49 2.484 1.232.637 1.619.636 3.169-.012 2.463-1.029 3.801-.92 5.512.448 1.368 1.095 1.562 1.126 2.637.421.638-.418 1.509-1.454 1.934-2.302.961-1.913 2.579-3.258 3.938-3.272.568-.006 1.558-.571 2.2-1.255 1.305-1.388 3.603-1.841 2.48-.488-.943 1.135-1.481 4.787-.874 5.922.506.945.546.94 1.467-.197.655-.809.787-1.328.429-1.686-.854-.854-.597-1.564.992-2.739 1.651-1.22 2.928-1.095 4.352.427 1.044 1.115 6.619 2.623 8.217 2.222 2.433-.61 9.008 3.387 11.479 6.979 1.176 1.71 4.934 3.432 6.586 3.017 3.399-.853 8.059 2.552 9.149 6.685.325 1.231.814 2.378 1.087 2.548.726.452-.361 2.238-2.737 4.499-1.518 1.444-1.881 2.065-1.454 2.492.427.428 1.129.053 2.815-1.501 2.452-2.259 3.27-2.489 4.498-1.261.748.748.725.9-.299 1.99-.61.649-1.462 1.194-1.893 1.212-.454.018-.271.236.437.518.971.388 1.478.279 2.487-.536 2.626-2.121 3.243-2.223 5.576-.92 1.516.847 2.124 1.492 2.047 2.174-.212 1.897.235 2.317 1.55 1.455 1.045-.684 1.762-.717 5.259-.238 3.719.509 4.206.712 5.991 2.496 1.325 1.325 2.815 2.196 4.687 2.74 2.513.731 2.786.954 3.242 2.647.661 2.454-.113 5.178-2.208 7.765-.894 1.105-1.991 2.727-2.436 3.605-.446.878-1.394 2.179-2.106 2.892-1.207 1.206-1.274 1.508-.973 4.372.587 5.595-2.15 16.034-4.79 18.267-.859.726-1.595.897-2.958.686-1.12-.173-1.95-.062-2.169.293-.195.315-1.281.981-2.413 1.479-1.133.497-2.819 1.553-3.747 2.346-1.607 1.372-1.66 1.524-1.12 3.162.624 1.889.204 4.125-1.132 6.032-.432.617-.785 1.666-.785 2.331 0 .666-.519 1.903-1.154 2.749-.634.847-1.857 2.784-2.718 4.306-2.119 3.744-3.393 4.392-6.465 3.291-2.666-.955-4.087-1.069-4.087-.328 0 .28.531.75 1.181 1.046.649.296 1.661 1.501 2.249 2.677.875 1.752.968 2.361.511 3.361-.706 1.551-3.407 2.852-5.918 2.852-2.224 0-2.776.544-2.008 1.98.474.885.156 2.311-.761 3.403-.075.089-.853-.21-1.731-.664-2.095-1.083-2.836-.393-1.778 1.654.431.833 1.25 1.662 1.82 1.843.98.311.99.38.194 1.26-.464.513-.705 1.291-.536 1.732.182.473-.224 1.496-.992 2.504-1.25 1.638-1.268 1.752-.467 2.975.458.699 1.173 1.401 1.588 1.561 1.498.574 1.746 2.538.604 4.777-1.144 2.242-1.319 4.491-.434 5.558.805.97-1.904 2.86-3.122 2.178ZM362.253 163.31c1.329-2.776 3.802-4.844 5.793-4.844 1.434 0 1.451.232.138 1.901l-.189.241a1.381 1.381 0 0 0 .216 1.928c.853.691 1.293.75 2.266.307.664-.302 1.344-.982 1.512-1.511.228-.719.6-.887 1.475-.668.811.204 1.319.03 1.652-.566 1.011-1.806-1.561-4.115-3.454-3.102-1.355.725-3.125-.718-2.747-2.239.14-.563-.148-1.545-.647-2.203-1.028-1.357-2.592-1.5-6.015-.549-1.231.341-2.635.606-3.119.587-.485-.019-.752.176-.593.433.159.257.108.472-.113.478-.222.006-.96.439-1.64.962l-.059.045a.83.83 0 0 0 .211 1.434c1.086.413 1.727.355 2.934-.27 1.418-.733 1.681-.733 3.229.006.932.444 2.205.673 2.85.511.641-.161 1.302-.071 1.47.201.172.277-.529.634-1.6.815-2.911.492-4.423 1.704-6.534 5.237-1.764 2.951-1.865 3.307-1.162 4.087.69.766.88.778 1.826.116.581-.406 1.616-1.908 2.3-3.337Zm9.036 3.07c1.771-.903 1.941-1.13 1.317-1.754-.624-.624-1.018-.583-3.048.315-2.383 1.054-3.14 2.477-1.317 2.477.558 0 1.93-.467 3.048-1.038Zm8.819-3.758c1.036-.725 1.075-.868.344-1.277-1.075-.601-4.273.436-4.273 1.386 0 .98 2.473.911 3.929-.109Zm37.354 214.771c0-.219.268-.667.596-.995.329-.328.409-.597.18-.597-.23 0-.687.367-1.015.816-.47.644-.796.699-1.546.264-.537-.312-.667-.559-.3-.567.358-.009.513-.239.344-.513-.325-.525.529-.668 2.984-.501 2.191.15 2.412.47 1.057 1.536-1.262.992-2.3 1.244-2.3.557ZM394.02 237.869c.304-.367.406-.815.226-.995-.18-.179.137-.327.704-.327.786 0 .97.236.771.995-.151.578-.678.995-1.258.995-.778 0-.875-.147-.443-.668Zm-13.53-5.135c-.182-.182-.332-.562-.332-.845 0-.312.232-.282.589.075.324.323.473.704.332.845-.142.141-.407.108-.589-.075Zm-2.818-.663c0-.273.098-.497.219-.497s.358.224.527.497c.169.274.07.498-.22.498-.289 0-.526-.224-.526-.498Zm23.376-.994c0-.274.099-.498.22-.498.12 0 .357.224.526.498.169.273.071.497-.219.497s-.527-.224-.527-.497Zm-2.984-3.204c0-.12.224-.357.497-.526.274-.169.498-.071.498.219s-.224.527-.498.527c-.273 0-.497-.099-.497-.22Zm-1.492-3.7c0-.274.224-.636.497-.805.274-.169.498-.084.498.19 0 .273-.224.635-.498.805-.273.169-.497.083-.497-.19Zm-4.224-2.043c-.175-.282.025-.365.468-.195.861.33 1.019.687.304.687-.258 0-.605-.221-.772-.492Zm1.986-1c-.169-.274-.071-.497.219-.497s.527.223.527.497c0 .273-.099.497-.22.497-.12 0-.357-.224-.526-.497Zm2.238 0c0-.274.099-.497.219-.497.121 0 .358.223.527.497.169.273.07.497-.219.497-.29 0-.527-.224-.527-.497Zm-34.195-1.324c-.342-.138-.621-.456-.621-.707 0-.717 2.195-.532 3.262.274.917.694.891.729-.527.707-.821-.013-1.772-.136-2.114-.274Zm12.586-.282c-.446-.25-1.432-.318-2.19-.151-.758.166-1.925.084-2.592-.183-1.073-.429-.978-.48.821-.438 2.644.062 3.35-.368 2.674-1.631-.479-.896-.335-.965 2.038-.965 2.295 0 5.606 1.053 6.168 1.961.373.604-6.028 1.905-6.919 1.407Zm9.541.314c-.59-.589.143-1.195 1.445-1.195.782 0 1.178.235 1.051.622-.229.696-1.973 1.097-2.496.573Zm4.11-.893c0-.107.336-.324.746-.482.41-.157.746-.069.746.196s-.336.482-.746.482-.746-.088-.746-.196Zm-21.501-3.565c-.153-.153-1.203-.292-2.333-.307-1.558-.022-1.932-.175-1.55-.636.37-.445-.161-1.038-1.99-2.223-3.585-2.322-5.587-2.776-7.995-1.813-2.259.904-2.432.929-2.432.36 0-1.041 3.959-2.185 6.809-1.969 2.726.207 4.252.788 9.605 3.651 4.399 2.353 4.404 2.358 2.984 2.763-1.613.459-2.748.523-3.098.174Zm3.595-4.197c.965-.623 1.492-.623 1.492 0 0 .274-.503.494-1.119.49-.905-.006-.976-.1-.373-.49Zm3.266-1.545c.332-.537 2.206-.598 2.205-.071 0 .205-.558.405-1.24.444-.682.04-1.116-.128-.965-.373Zm-9.836-4.793c-.795-.913-.679-2.117.204-2.117.283 0 .4.437.26.971s.002 1.063.315 1.176c.313.112.437.348.276.524-.162.176-.636-.073-1.055-.554Zm2.89-3.907c-.177-.461-.21-.951-.073-1.087.136-.137.393.128.57.59.177.461.21.95.073 1.087s-.393-.129-.57-.59Zm-3.117-.448c0-.41.426-.746.947-.746.842 0 .865.083.202.746-.411.411-.837.746-.948.746-.111 0-.201-.335-.201-.746Zm31.169-13.896c0-.12.223-.357.497-.526.274-.169.497-.071.497.219s-.223.527-.497.527-.497-.099-.497-.22Zm25.863-31.361c0-.41.217-.746.482-.746s.353.336.195.746c-.157.41-.374.746-.481.746-.108 0-.196-.336-.196-.746Zm-2.599-1.605a.883.883 0 0 1-.529-1.505l2.163-2.141c1.918-1.899 3.737-3.453 4.044-3.453.323 0 .226.366-.231.871-1.036 1.144-.329 2.43 1.563 2.845.826.181 1.649.815 1.967 1.513.511 1.121.424 1.235-1.299 1.713-1.808.502-3.966.546-7.678.157Zm-121.195-3.568c-1.722-1.609-1.915-2.287-.772-2.726 1.023-.392 2.912.888 3.627 2.459.752 1.648.738 1.71-.368 1.71-.518 0-1.637-.649-2.487-1.443Zm-.947-12.611c-.488-.588-.457-.861.155-1.368 1.01-.839 1.512-.27.924 1.048-.406.909-.554.953-1.079.32Zm-.778-3.741c-.168-.272.028-.77.435-1.108.809-.672.977-.145.298.928-.26.409-.548.48-.733.18Zm-32.149-.317c0-.35 1.509-.962 3.648-1.48.811-.196 1.291-.149 1.129.112-.154.249-.9.578-1.658.731-.758.153-1.769.429-2.248.614-.479.186-.871.196-.871.023Zm151.001-11.46c-1.068-.657-2.377-1.881-2.909-2.72-1.038-1.64-1.995-1.848-4.797-1.044-.948.272-2.013.298-2.439.06-1.472-.824 1.188-1.635 4.151-1.265 2.253.282 2.754.202 3.017-.483.527-1.376 2.944-2.362 4.287-1.75.827.377 1.579.367 2.636-.037 1.421-.542 1.441-.591.512-1.272-.531-.39-1.137-.709-1.347-.709-.209 0-.966-.999-1.682-2.221-.716-1.221-2.057-2.687-2.981-3.258-1.57-.97-1.777-.987-3.182-.261-1.227.635-1.936.679-3.879.243-1.307-.293-3.132-.392-4.056-.219-1.602.299-4.538-.485-4.538-1.212 0-1.337 4.213-4.336 6.715-4.781.635-.113 1.048.648.606 1.119l-.039.042c-1.962 2.09-1.224 3.051.906 1.181.904-.793 2.466-1.596 3.471-1.785 1.536-.288 2.194-.1 4.122 1.177 2.566 1.7 2.764 1.745 4.211.971.872-.467 1.195-.339 2.141.848.655.821 2.116 1.715 3.542 2.166 2.271.718 2.427.875 2.427 2.442 0 1.174.339 1.916 1.136 2.486 3.338 2.387 3.266 2.289 2.543 3.445-.99 1.586-1.772 1.7-3.964.582-1.524-.777-2.191-.884-2.958-.473-.939.502-.949.61-.193 2.072.62 1.2.677 1.805.255 2.731-.519 1.14-.602 1.158-2.013.428-2.774-1.434-4.641-.49-2.054 1.038.811.479 1.361 1.053 1.223 1.277-.482.779-2.943.366-4.87-.818Zm-18.753-2.031c-.981-.516-1.742-.56-3.116-.181-2.334.645-3.151.173-1.966-1.136 1.517-1.676 2.545-2.005 4.375-1.401 2.058.679 2.972 1.689 2.417 2.671-.354.626-.596.633-1.71.047Zm-36.254-9.511c-.684-.108-2.35-.693-3.702-1.3-.644-.289-.475-1.246.229-1.297l.765-.055c1.9-.136 3.454-.472 3.454-.746 0-.273-1.343-.617-2.984-.764-2.168-.193-2.576-.329-1.493-.497 1.815-.281 1.945-1.066.249-1.495-1.221-.308-1.212-.327.506-1.067 2.977-1.283 6.149-1.529 8.959-.694 2.308.685 2.668.682 3.756-.031.769-.504 1.225-.588 1.265-.234l.124 1.135c.116 1.078 1.108.938 2.292-.322 1.096-1.166 2.995-1.725 2.991-.88-.001.205-.443 1.098-.983 1.983l-.039.064a1.694 1.694 0 0 0 .663 2.383.884.884 0 0 1-.042 1.588l-.989.452c-2.378 1.085-2.866 1.147-4.997.636-2.067-.496-2.66-.439-4.742.453-2.353 1.008-2.849 1.073-5.282.688Zm19.948-.35c-.45-.541-.264-.808.897-1.289.808-.334 1.967-.446 2.588-.249 1.077.342 1.053.396-.585 1.268-2.089 1.113-2.193 1.122-2.9.27Zm-32.007-5.123c-.802-.803-.62-.977 3.229-3.084 4.509-2.468 6.775-2.796 10.819-1.564.584.177.542 1.017-.057 1.136l-.689.137c-2.44.484-7.613 2.213-11.697 3.911-.417.173-1.136-.067-1.605-.536Zm35.933-.644c0-.265-.616-.835-1.368-1.267-.28-.16-.129-.59.19-.54l.273.043c1.302.205 1.95.083 2.239-.421.343-.599 3.509-1.798 4.771-1.807.212-.002.039.668-.385 1.488-.998 1.93-5.72 3.997-5.72 2.504Zm7.743-1.452c-.712-1.153 4.155-2.938 6.222-2.282 1.507.478.5 1.3-2.128 1.737-1.176.195-2.508.513-2.959.705-.451.192-.961.12-1.135-.16Zm15.882-3.662c-3.283-.262-6.03-.532-6.105-.602-.444-.412.665-1.755 1.859-2.25 1.173-.486 1.714-.421 3.321.396 1.566.797 2.576.93 5.486.72 1.961-.141 4.199-.096 4.973.1.498.126.58.798.127 1.04l-.46.246c-.957.512-2.076.906-2.486.877-.411-.029-3.432-.266-6.715-.528Z" fill="url(#a)"/><defs><linearGradient id="a" x1="288.826" y1="229.082" x2="440.947" y2="392.431" gradientUnits="userSpaceOnUse"><stop stop-color="#00DA8F"/><stop offset="1" stop-color="#01DAB9"/></linearGradient></defs></svg>