<svg width="807" height="828" fill="none" xmlns="http://www.w3.org/2000/svg"><path d="M635.66 501.942c-29.09 118.304-102.326 228.953-189.454 245.573-87.486 16.978-189.224-60.432-268.745-147.108-80.239-86.679-138.263-183.34-117.658-256.466 20.605-73.126 119.839-122.717 228.808-154.703 108.971-31.268 227.319-44.573 293.842 11.933 66.881 56.148 82.297 182.467 53.207 300.771Z" fill="#fff"/><path opacity=".5" d="M558.705 611.525C474.36 699.434 355.611 758.64 271.846 729.47c-84.254-29.04-133.656-146.948-159.185-261.772-26.15-115.185-28.07-227.908 26.338-280.935 54.408-53.027 165.142-46.356 275.505-19.572 110.006 27.406 219.15 75.057 248.508 157.254 29.846 82.067-19.963 199.17-104.307 287.08Z" fill="#fff"/></svg>