<svg width="54" height="66" fill="none" xmlns="http://www.w3.org/2000/svg"><circle cx="18.5" cy="47.5" r="18.5" fill="url(#a)"/><g style="mix-blend-mode:darken" fill="#1E2A3A"><path fill-rule="evenodd" clip-rule="evenodd" d="M33.574 48.916a.753.753 0 0 1-.261-.227L30.5 44.772l-2.812 3.917-.002.003a.73.73 0 0 1-.325.258.697.697 0 0 1-.408.034l-11.357-2.372a.735.735 0 0 1-.428-.268.793.793 0 0 1-.168-.49v-8.082a.803.803 0 0 1 .257-.584.734.734 0 0 1 .593-.18h.005c4.854.678 9.748.998 14.645.96a100.35 100.35 0 0 0 14.646-.96h.005a.712.712 0 0 1 .592.18.804.804 0 0 1 .257.584v8.083c0 .178-.059.35-.167.489a.736.736 0 0 1-.429.268l-11.353 2.371h-.003a.65.65 0 0 1-.14.016h-.001a.719.719 0 0 1-.333-.083Zm10.945-3.693V38.67l-.437.05a120.36 120.36 0 0 1-27.163 0l-.438-.05v6.552l10.3 2.15 3.126-4.352a.75.75 0 0 1 .261-.228.717.717 0 0 1 .926.228l3.125 4.352 10.3-2.15Z"/><path d="m10.428 30.028-.007.004.008-.004Z"/><path fill-rule="evenodd" clip-rule="evenodd" d="m43.07 14.65 2.478 11.886.268.045c1.797.302 3.635.793 5.013 1.456.69.332 1.242.697 1.618 1.087.373.386.553.776.553 1.173 0 .372-.185.743-.608 1.12-.426.38-1.064.737-1.885 1.066-1.639.655-3.908 1.157-6.39 1.533-4.956.75-10.659.984-13.616.984-2.958 0-8.662-.234-13.618-.984-2.481-.376-4.75-.878-6.39-1.533-.82-.329-1.458-.686-1.884-1.066C8.186 31.04 8 30.67 8 30.297c0-.397.18-.787.554-1.173.376-.39.929-.755 1.618-1.087 1.378-.663 3.216-1.154 5.012-1.456l.269-.045 2.492-11.972.002-.011a2.974 2.974 0 0 1 1.017-1.83A3.035 3.035 0 0 1 20.945 12h4.044a3.08 3.08 0 0 1 1.875.64l2.827 3.075.094.033a1.948 1.948 0 0 0 1.633-.157l.053-.031 2.538-2.803A3.133 3.133 0 0 1 36.013 12h4.04c.74.001 1.456.27 2.01.754a3 3 0 0 1 1.005 1.88l.002.015ZM9.825 29.961l-.416.33.436.302c.455.317 1.28.648 2.392.97 1.127.325 2.589.65 4.349.94 3.52.58 8.252 1.02 13.915 1.02 5.758 0 10.553-.454 14.09-1.049 1.77-.297 3.229-.63 4.34-.961 1.093-.325 1.9-.662 2.317-.988l.423-.33-.442-.305c-.543-.375-2.549-1.433-6.41-1.97h-.002a.746.746 0 0 1-.407-.192.731.731 0 0 1-.219-.388l-2.589-12.445a1.559 1.559 0 0 0-.487-.992 1.588 1.588 0 0 0-1.053-.428H36.01c-.35 0-.69.118-.964.335l-.025.02-2.522 2.784a3.014 3.014 0 0 1-3.872.115l-2.819-3.066-.079-.033a1.938 1.938 0 0 0-.733-.155h-4.049c-.376 0-.74.136-1.021.383a1.527 1.527 0 0 0-.51.94L16.81 27.341a.73.73 0 0 1-.22.388.746.746 0 0 1-.406.192h-.001c-3.626.504-5.638 1.47-6.358 2.041Z"/></g><defs><linearGradient id="a" x1="7.183" y1="46.097" x2="25.051" y2="73.727" gradientUnits="userSpaceOnUse"><stop stop-color="#00DA8F"/><stop offset="1" stop-color="#01DAB9"/></linearGradient></defs></svg>