<svg width="54" height="66" fill="none" xmlns="http://www.w3.org/2000/svg"><circle cx="18.5" cy="47.5" r="18.5" fill="url(#a)"/><g style="mix-blend-mode:darken"><path d="M44.5 10a8.5 8.5 0 1 0 0 17 8.5 8.5 0 0 0 0-17Z" fill="#1E2A3A"/><path d="M23.893 18.581a6.318 6.318 0 0 0-6.322 6.314v14.21a6.318 6.318 0 0 0 6.322 6.314h14.215a6.318 6.318 0 0 0 6.321-6.314v-9.473c0-.442.357-.79.786-.79.429 0 .785.348.785.79v9.473A7.894 7.894 0 0 1 38.108 47H23.893A7.894 7.894 0 0 1 16 39.105v-14.21A7.894 7.894 0 0 1 23.893 17h9.476c.43 0 .786.35.786.79a.788.788 0 0 1-.786.791h-9.476Z" fill="#1E2A3A"/><path d="M46.183 18.217a.4.4 0 0 0 0 .566l1.534 1.534a.4.4 0 0 1 0 .565l-.835.835a.4.4 0 0 1-.565 0l-1.534-1.534a.4.4 0 0 0-.566 0l-1.534 1.534a.4.4 0 0 1-.565 0l-.835-.835a.4.4 0 0 1 0-.565l1.534-1.534a.4.4 0 0 0 0-.566l-1.534-1.533a.4.4 0 0 1 0-.566l.835-.835a.4.4 0 0 1 .565 0l1.534 1.534a.4.4 0 0 0 .566 0l1.534-1.534a.4.4 0 0 1 .565 0l.835.835a.4.4 0 0 1 0 .566l-1.534 1.533Z" fill="#fff"/></g><defs><linearGradient id="a" x1="7.183" y1="46.097" x2="25.051" y2="73.727" gradientUnits="userSpaceOnUse"><stop stop-color="#00DA8F"/><stop offset="1" stop-color="#01DAB9"/></linearGradient></defs></svg>