<svg width="54" height="66" fill="none" xmlns="http://www.w3.org/2000/svg"><circle cx="18.5" cy="47.5" r="18.5" fill="url(#a)"/><path fill-rule="evenodd" clip-rule="evenodd" d="M24 5.377A3.378 3.378 0 0 1 27.378 2h18.244A3.378 3.378 0 0 1 49 5.377v45.246A3.378 3.378 0 0 1 45.622 54H27.378A3.378 3.378 0 0 1 24 50.623V5.377Zm.9.225a2.477 2.477 0 0 1 2.478-2.476h2.203c.276 0 .494.227.561.495a2.028 2.028 0 0 0 1.966 1.53h8.784c.948 0 1.745-.65 1.966-1.53.067-.268.285-.495.56-.495h2.204a2.477 2.477 0 0 1 2.477 2.476v44.796a2.477 2.477 0 0 1-2.477 2.476H27.378a2.477 2.477 0 0 1-2.477-2.476V5.602Z" fill="#1E2A3A" stroke="#1E2A3A" stroke-width=".5"/><defs><linearGradient id="a" x1="7.183" y1="46.097" x2="25.051" y2="73.727" gradientUnits="userSpaceOnUse"><stop stop-color="#00DA8F"/><stop offset="1" stop-color="#01DAB9"/></linearGradient></defs></svg>