<svg width="18" height="20" fill="none" xmlns="http://www.w3.org/2000/svg"><path fill-rule="evenodd" clip-rule="evenodd" d="M14.78 7H2.72c-.719 0-1.41.28-1.92.777a2.628 2.628 0 0 0-.8 1.88v7.187c0 .706.29 1.382.8 1.88.51.497 1.201.775 1.92.776h12.06c.719 0 1.41-.28 1.92-.776.51-.498.8-1.174.8-1.88V9.656a2.63 2.63 0 0 0-.8-1.88A2.758 2.758 0 0 0 14.78 7ZM2.72 8.25h12.06c.257.002.508.07.726.195l-5.76 5.133a1.445 1.445 0 0 1-.977.361 1.443 1.443 0 0 1-.968-.386l-5.55-5.224c.15-.051.308-.078.47-.078ZM1.27 9.658c.001-.153.028-.303.079-.446l5.575 5.246a2.725 2.725 0 0 0 1.828.732 2.729 2.729 0 0 0 1.847-.684l5.62-5.009c.007.053.01.107.01.16v7.187c0 .371-.151.728-.423.992a1.47 1.47 0 0 1-1.027.414H2.72c-.386 0-.755-.15-1.027-.414a1.386 1.386 0 0 1-.422-.991V9.657Z" fill="#252525"/></svg>