<svg width="40" height="40" viewBox="0 0 40 40" fill="none" xmlns="http://www.w3.org/2000/svg">
<rect width="40" height="40" rx="12" fill="url(#paint0_linear_185_3132)"/>
<path d="M20 27.5271L24.4 23.1985C25.2701 22.3424 25.8627 21.2517 26.1027 20.0644C26.3427 18.877 26.2195 17.6463 25.7485 16.5278C25.2776 15.4094 24.48 14.4534 23.4568 13.7808C22.4336 13.1083 21.2306 12.7493 20 12.7493C18.7694 12.7493 17.5664 13.1083 16.5432 13.7808C15.52 14.4534 14.7224 15.4094 14.2515 16.5278C13.7805 17.6463 13.6573 18.877 13.8973 20.0644C14.1373 21.2517 14.7299 22.3424 15.6 23.1985L20 27.5271ZM20 30L14.3431 24.435C13.2243 23.3343 12.4624 21.932 12.1537 20.4054C11.845 18.8788 12.0035 17.2964 12.609 15.8583C13.2145 14.4202 14.2399 13.1911 15.5555 12.3263C16.871 11.4616 18.4178 11 20 11C21.5822 11 23.129 11.4616 24.4445 12.3263C25.7601 13.1911 26.7855 14.4202 27.391 15.8583C27.9965 17.2964 28.155 18.8788 27.8463 20.4054C27.5376 21.932 26.7757 23.3343 25.6569 24.435L20 30ZM20 20.6189C20.4715 20.6189 20.9237 20.4346 21.2571 20.1066C21.5905 19.7787 21.7778 19.3338 21.7778 18.87C21.7778 18.4062 21.5905 17.9613 21.2571 17.6333C20.9237 17.3053 20.4715 17.1211 20 17.1211C19.5285 17.1211 19.0763 17.3053 18.7429 17.6333C18.4095 17.9613 18.2222 18.4062 18.2222 18.87C18.2222 19.3338 18.4095 19.7787 18.7429 20.1066C19.0763 20.4346 19.5285 20.6189 20 20.6189ZM20 22.3678C19.057 22.3678 18.1526 21.9993 17.4858 21.3433C16.819 20.6873 16.4444 19.7977 16.4444 18.87C16.4444 17.9423 16.819 17.0526 17.4858 16.3967C18.1526 15.7407 19.057 15.3722 20 15.3722C20.943 15.3722 21.8474 15.7407 22.5142 16.3967C23.181 17.0526 23.5556 17.9423 23.5556 18.87C23.5556 19.7977 23.181 20.6873 22.5142 21.3433C21.8474 21.9993 20.943 22.3678 20 22.3678Z" fill="white"/>
<defs>
<linearGradient id="paint0_linear_185_3132" x1="7.76512" y1="18.4836" x2="27.0826" y2="48.3539" gradientUnits="userSpaceOnUse">
<stop stop-color="#00DA8F"/>
<stop offset="1" stop-color="#01DAB9"/>
</linearGradient>
</defs>
</svg>
