<svg width="70" height="70" viewBox="0 0 70 70" fill="none" xmlns="http://www.w3.org/2000/svg">
<circle opacity="0.3" cx="35" cy="35" r="35" fill="#4DE5BF"/>
<path d="M34.9994 39.4278C39.2543 39.4278 42.9759 41.2577 45 43.988L42.8598 45C41.2122 43.0481 38.3074 41.7515 34.9994 41.7515C31.6915 41.7515 28.7867 43.0481 27.1391 45L25 43.9869C27.0241 41.2565 30.7445 39.4278 34.9994 39.4278ZM34.9994 22C36.5402 22 38.0179 22.612 39.1074 23.7015C40.1969 24.7909 40.809 26.2685 40.809 27.8093V31.2948C40.8089 32.7918 40.2309 34.231 39.1955 35.3122C38.1601 36.3935 36.7472 37.0333 35.2516 37.0983L34.9994 37.1041C33.4586 37.1041 31.9809 36.492 30.8914 35.4026C29.8019 34.3131 29.1899 32.8355 29.1899 31.2948V27.8093C29.1899 26.3123 29.768 24.8731 30.8034 23.7918C31.8388 22.7106 33.2516 22.0708 34.7473 22.0058L34.9994 22ZM34.9994 24.3237C34.1103 24.3237 33.2548 24.6633 32.6079 25.2733C31.961 25.8832 31.5717 26.7172 31.5195 27.6048L31.5137 27.8093V31.2948C31.5128 32.2021 31.8658 33.074 32.4976 33.7252C33.1293 34.3764 33.9902 34.7556 34.8971 34.7822C35.8041 34.8088 36.6857 34.4808 37.3546 33.8678C38.0235 33.2548 38.427 32.4051 38.4793 31.4993L38.4852 31.2948V27.8093C38.4852 26.8848 38.1179 25.9983 37.4642 25.3446C36.8105 24.6909 35.9239 24.3237 34.9994 24.3237Z" fill="#018868" stroke="#CAF7EC" stroke-width="0.6"/>
</svg>
