<svg width="705" height="703" fill="none" xmlns="http://www.w3.org/2000/svg"><mask id="a" style="mask-type:alpha" maskUnits="userSpaceOnUse" x="0" y="0" width="705" height="703"><path fill="#C4C4C4" d="M0 0h705v703H0z"/></mask><g mask="url(#a)" fill="#F5F5F5"><path opacity=".3" d="M68.781 460.03c56.498 127.481 161.195 237.661 262.687 239.24 101.967 1.912 201.062-105.252 273.27-218.48 73.015-113.372 119.002-233.616 81.124-311.898-37.879-78.283-159.621-114.604-288.801-129.19-129.038-13.776-265.037-5.484-328.651 71.219-64.09 76.371-56.126 221.628.371 349.109Z"/><path opacity=".2" d="M134.596 538.333c96.867 100.517 233.155 168.303 329.191 135.108 96.596-33.044 153.092-167.631 182.21-298.729 29.829-131.51 31.87-260.242-30.61-320.879C552.907-6.804 425.905.656 299.359 31.088 173.223 62.23 48.103 116.494 14.547 210.326c-34.116 93.681 23.181 227.49 120.049 328.007Z"/></g></svg>