<svg width="70" height="70" fill="none" xmlns="http://www.w3.org/2000/svg"><circle cx="35" cy="35" r="35" fill="#DDE4EE"/><path fill-rule="evenodd" clip-rule="evenodd" d="M31.788 26.365A5.694 5.694 0 0 1 35 25.37c1.532 0 3.003.621 4.089 1.73a5.989 5.989 0 0 1 1.697 4.189c0 1.172-.34 2.318-.977 3.291a5.817 5.817 0 0 1-2.597 2.178 5.666 5.666 0 0 1-3.34.336 5.747 5.747 0 0 1-2.96-1.617 5.963 5.963 0 0 1-1.587-3.032 6.046 6.046 0 0 1 .33-3.424 5.892 5.892 0 0 1 2.133-2.656ZM35 26.68a4.475 4.475 0 0 0-3.198 1.352 4.656 4.656 0 0 0-1.321 3.257c0 .91.264 1.8.76 2.557a4.54 4.54 0 0 0 2.027 1.7 4.44 4.44 0 0 0 2.615.263 4.493 4.493 0 0 0 2.315-1.264 4.638 4.638 0 0 0 1.234-2.358 4.694 4.694 0 0 0-.256-2.66 4.59 4.59 0 0 0-1.662-2.068 4.456 4.456 0 0 0-2.514-.78Z" fill="#1E2A3A"/><path fill-rule="evenodd" clip-rule="evenodd" d="M25.81 21.89A12.858 12.858 0 0 1 35 18c3.445 0 6.751 1.398 9.19 3.89A13.44 13.44 0 0 1 48 31.288c0 3.674-2.02 9.127-4.71 13.686-1.342 2.273-2.836 4.297-4.302 5.748C37.503 52.193 36.121 53 35 53s-2.503-.807-3.988-2.277c-1.466-1.45-2.96-3.475-4.301-5.748C24.019 40.416 22 34.963 22 31.29a13.44 13.44 0 0 1 3.81-9.4ZM35 19.31c-3.114 0-6.1 1.264-8.3 3.511a12.107 12.107 0 0 0-3.433 8.468c0 3.651 2.032 8.728 4.451 12.86 1.215 2.074 2.543 3.935 3.79 5.284.622.674 1.234 1.23 1.81 1.62.567.384 1.142.637 1.682.637s1.115-.253 1.683-.637c.575-.39 1.187-.946 1.81-1.62 1.246-1.349 2.574-3.21 3.789-5.284 2.42-4.132 4.45-9.209 4.45-12.86 0-3.175-1.233-6.22-3.433-8.468A11.612 11.612 0 0 0 35 19.311Z" fill="#1E2A3A"/></svg>