<svg width="70" height="70" fill="none" xmlns="http://www.w3.org/2000/svg"><circle cx="35" cy="35" r="35" fill="#DDE4EE"/><path fill-rule="evenodd" clip-rule="evenodd" d="M27 20.208c0-1.22.968-2.208 2.162-2.208h11.676c1.194 0 2.162.988 2.162 2.208v29.584c0 1.22-.968 2.208-2.162 2.208H29.162C27.968 52 27 51.011 27 49.792V20.208Zm.577.147c0-.894.71-1.62 1.585-1.62h1.23c.276 0 .491.232.591.49.19.49.659.836 1.206.836h5.622a1.3 1.3 0 0 0 1.206-.836c.1-.258.315-.49.591-.49h1.23c.876 0 1.585.726 1.585 1.62v29.29c0 .894-.71 1.62-1.585 1.62H29.162c-.875 0-1.585-.726-1.585-1.62v-29.29Z" fill="#1E2A3A" stroke="#1E2A3A" stroke-width=".5"/></svg>