<svg width="70" height="70" fill="none" xmlns="http://www.w3.org/2000/svg"><circle cx="35" cy="35" r="35" fill="#DDE4EE"/><path d="M45.468 28.123c.906 0 1.812-.344 2.5-1.032 1.381-1.38 1.375-3.634-.013-5.022a3.547 3.547 0 0 0-2.513-1.046h-.01a3.51 3.51 0 0 0-2.5 1.034 3.508 3.508 0 0 0-1.034 2.509c.003.831.289 1.619.812 2.254l-2.374 2.373A7.861 7.861 0 0 0 35 27.109c-2.044 0-3.91.782-5.313 2.062l-2.374-2.374a3.54 3.54 0 0 0 .811-2.254 3.508 3.508 0 0 0-1.034-2.51A3.51 3.51 0 0 0 24.591 21h-.01a3.548 3.548 0 0 0-2.513 1.046c-1.388 1.388-1.394 3.641-.013 5.023a3.51 3.51 0 0 0 2.5 1.033h.01a3.542 3.542 0 0 0 2.253-.81l2.374 2.373A7.859 7.859 0 0 0 27.11 35a7.86 7.86 0 0 0 2.061 5.312l-2.375 2.375c-1.396-1.15-3.465-1.077-4.763.222-1.381 1.38-1.375 3.634.013 5.022a3.547 3.547 0 0 0 2.513 1.046h.01a3.51 3.51 0 0 0 2.5-1.034 3.508 3.508 0 0 0 1.034-2.509 3.54 3.54 0 0 0-.812-2.254l2.374-2.373A7.861 7.861 0 0 0 35 42.891c2.044 0 3.91-.782 5.313-2.062l2.374 2.374a3.541 3.541 0 0 0-.811 2.254 3.508 3.508 0 0 0 1.034 2.51A3.51 3.51 0 0 0 45.409 49h.01a3.548 3.548 0 0 0 2.513-1.046c1.388-1.388 1.394-3.641.013-5.023a3.51 3.51 0 0 0-2.5-1.033h-.01a3.542 3.542 0 0 0-2.254.81l-2.373-2.373A7.859 7.859 0 0 0 42.89 35a7.86 7.86 0 0 0-2.06-5.312l2.374-2.374c.656.539 1.46.81 2.263.81Zm-2.041-5.572a2.816 2.816 0 0 1 2.005-.829h.008c.762.002 1.48.301 2.02.842a2.855 2.855 0 0 1 .013 4.033 2.857 2.857 0 0 1-4.033-.013 2.851 2.851 0 0 1-.842-2.02 2.814 2.814 0 0 1 .829-2.013Zm-18.864 4.852h-.009c-.758 0-1.47-.294-2.004-.829a2.855 2.855 0 0 1 .012-4.033 2.856 2.856 0 0 1 2.02-.842h.009c.758 0 1.47.294 2.005.83a2.81 2.81 0 0 1 .829 2.012 2.851 2.851 0 0 1-.842 2.02 2.85 2.85 0 0 1-2.02.842Zm2.01 20.046a2.815 2.815 0 0 1-2.005.829h-.008a2.85 2.85 0 0 1-2.02-.842 2.855 2.855 0 0 1-.013-4.033 2.825 2.825 0 0 1 2.005-.827c.733 0 1.468.28 2.028.84.54.54.84 1.258.842 2.02a2.814 2.814 0 0 1-.829 2.013Zm18.864-4.852h.009c.758 0 1.47.294 2.004.83a2.855 2.855 0 0 1-.012 4.032 2.85 2.85 0 0 1-2.02.842 2.825 2.825 0 0 1-2.014-.83 2.814 2.814 0 0 1-.829-2.012c.002-.762.301-1.48.842-2.02a2.85 2.85 0 0 1 2.02-.842ZM35 42.191c-3.966 0-7.192-3.226-7.192-7.191s3.226-7.191 7.192-7.191 7.192 3.226 7.192 7.191-3.226 7.191-7.192 7.191Z" fill="#1E2A3A" stroke="#1E2A3A" stroke-width=".6"/></svg>