<svg width="70" height="70" fill="none" xmlns="http://www.w3.org/2000/svg"><circle cx="35" cy="35" r="35" fill="#DDE4EE"/><path d="M34.063 16.05a.576.576 0 0 0 .574-.578.577.577 0 0 0-.574-.579.577.577 0 0 0-.575.579c0 .32.258.579.575.579Zm1.437.289a.58.58 0 0 0 0 1.158.579.579 0 0 0 0-1.158Zm1.435 0a.58.58 0 0 0 0 1.158.579.579 0 0 0 0-1.158Zm1.437 0a.578.578 0 0 0 0 1.158.58.58 0 0 0 0-1.158Zm0 2.604a.577.577 0 0 0 .575-.579.577.577 0 0 0-.575-.578.577.577 0 0 0-.574.578c0 .32.257.58.574.58Zm0 .29a.578.578 0 0 0 0 1.156.579.579 0 0 0 0-1.156Zm0 1.445a.578.578 0 0 0 0 1.158.58.58 0 0 0 0-1.157Zm-1.437 1.448a.58.58 0 0 0 0 1.158.579.579 0 0 0 0-1.158Zm-1.435 0a.579.579 0 0 0 0 1.158.579.579 0 0 0 0-1.158Zm0-1.448a.58.58 0 0 0 0 1.158.579.579 0 0 0 0-1.157Zm0-1.445a.58.58 0 0 0 0 1.156.578.578 0 0 0 0-1.156Zm-1.437 1.445a.579.579 0 0 0 0 1.158.579.579 0 0 0 0-1.157Zm-1.434 1.448a.578.578 0 0 0 0 1.158.58.58 0 0 0 0-1.158Zm-1.438 1.446a.578.578 0 0 0 0 1.157.579.579 0 0 0 0-1.157Zm1.438 1.447a.578.578 0 0 0 0 1.157.578.578 0 0 0 0-1.157Zm1.434-1.447a.579.579 0 0 0 0 1.157.578.578 0 0 0 0-1.157Zm2.872 0a.58.58 0 0 0 0 1.157.578.578 0 0 0 0-1.157Zm0 1.447a.579.579 0 0 0 0 1.157c.316 0 .574-.26.574-.578a.577.577 0 0 0-.574-.579Zm1.437 2.604c.318 0 .575-.26.575-.579a.577.577 0 0 0-.575-.579.577.577 0 0 0-.574.58c0 .319.257.578.574.578Zm0 1.445a.576.576 0 0 0 .574-.578.576.576 0 0 0-.574-.578.576.576 0 0 0-.574.578c0 .32.257.578.574.578Zm-1.437.29a.58.58 0 0 0 0 1.158.578.578 0 0 0 0-1.158Zm-1.435 0a.579.579 0 0 0 0 1.158.578.578 0 0 0 0-1.158Zm0-1.446a.58.58 0 0 0 0 1.156.577.577 0 0 0 0-1.156Zm0-1.447a.58.58 0 0 0 0 1.158.578.578 0 0 0 0-1.158Zm1.435 0a.58.58 0 0 0 0 1.158.578.578 0 0 0 0-1.158Zm-2.872 2.893a.579.579 0 0 0 0 1.158.579.579 0 0 0 0-1.158Zm-1.434 1.447a.578.578 0 0 0 0 1.158.579.579 0 0 0 0-1.158Zm-1.439 2.603a.576.576 0 0 0 .574-.579.577.577 0 0 0-.574-.578.577.577 0 0 0-.575.578c0 .32.257.58.575.58Zm-1.434 1.448c.317 0 .575-.26.575-.579a.577.577 0 0 0-.575-.578.577.577 0 0 0-.574.578c0 .32.257.579.574.579Zm0 1.446c.317 0 .575-.26.575-.579a.577.577 0 0 0-.575-.578.577.577 0 0 0-.574.578c0 .32.257.579.574.579Zm-1.436-1.446c.317 0 .574-.26.574-.579a.577.577 0 0 0-.574-.578.577.577 0 0 0-.575.578c0 .32.257.579.575.579Zm-1.435-1.157a.578.578 0 0 0 0 1.157.579.579 0 0 0 0-1.157Zm-1.438 1.446a.579.579 0 0 0 0 1.156.578.578 0 0 0 0-1.156Zm0 1.445a.579.579 0 0 0 0 1.158.578.578 0 0 0 0-1.157Zm0 1.448a.578.578 0 0 0 0 1.157.579.579 0 0 0 0-1.157Zm1.438 0a.578.578 0 0 0 0 1.157.579.579 0 0 0 0-1.157Zm1.435 1.157a.577.577 0 0 0 .574-.578.577.577 0 0 0-.574-.579.577.577 0 0 0-.575.579c0 .32.257.578.575.578Zm0 .29a.579.579 0 0 0 0 1.156.579.579 0 0 0 0-1.156Zm-1.435 0a.579.579 0 0 0 0 1.156.579.579 0 0 0 0-1.156Zm2.871 0a.579.579 0 0 0 0 1.156.579.579 0 0 0 0-1.156Zm0 2.603c.317 0 .575-.26.575-.579a.577.577 0 0 0-.575-.578.577.577 0 0 0-.574.578c0 .32.257.579.574.579Zm1.434 0c.317 0 .574-.26.574-.579a.577.577 0 0 0-.574-.578.577.577 0 0 0-.575.578c0 .32.257.579.575.579Zm1.439-1.158a.578.578 0 0 0 0 1.158.579.579 0 0 0 0-1.157Zm1.434 1.158c.317 0 .574-.26.574-.579a.577.577 0 0 0-.574-.578.577.577 0 0 0-.575.578c0 .32.258.579.575.579Zm-1.434-4.05a.578.578 0 0 0 0 1.157.579.579 0 0 0 0-1.157Zm1.434 1.157a.577.577 0 0 0 .574-.578.577.577 0 0 0-.574-.579.577.577 0 0 0-.575.579c0 .32.258.578.575.578Zm-2.873 0a.577.577 0 0 0 .574-.578.577.577 0 0 0-.574-.579.577.577 0 0 0-.575.579c0 .32.257.578.575.578Zm4.31 1.735a.578.578 0 0 0 0 1.158.578.578 0 0 0 0-1.157Zm1.435 1.447a.58.58 0 0 0 0 1.158.578.578 0 0 0 0-1.158Zm1.437 0a.578.578 0 0 0 0 1.158.58.58 0 0 0 0-1.158Zm1.435 1.446a.579.579 0 0 0 0 1.157.578.578 0 0 0 0-1.157Zm1.437 0a.58.58 0 0 0 0 1.157.579.579 0 0 0 0-1.157Zm0 1.447a.579.579 0 0 0 0 1.158.579.579 0 0 0 0-1.158Zm0 1.446a.579.579 0 0 0 0 1.158.579.579 0 0 0 0-1.158Zm0 1.448a.578.578 0 0 0 0 1.156.578.578 0 0 0 0-1.156Zm0 1.445a.579.579 0 0 0 0 1.158.579.579 0 0 0 0-1.158Zm-1.436 2.605c.317 0 .574-.26.574-.58a.577.577 0 0 0-.574-.578.577.577 0 0 0-.575.579c0 .32.258.579.575.579Zm0 1.446c.317 0 .574-.26.574-.58a.577.577 0 0 0-.574-.578.577.577 0 0 0-.575.579c0 .32.258.578.575.578Zm-.001.29a.578.578 0 0 0 0 1.158.579.579 0 0 0 0-1.158Zm-1.435 1.446a.577.577 0 0 0 0 1.156.579.579 0 0 0 0-1.156Zm0 2.604a.577.577 0 0 0 .575-.579.577.577 0 0 0-.575-.578.577.577 0 0 0-.574.578c0 .32.257.58.574.58Zm-1.437-2.604a.579.579 0 0 0 0 1.156.578.578 0 0 0 0-1.156Zm0-1.446a.579.579 0 0 0 0 1.158.579.579 0 0 0 0-1.158ZM35.5 52.502a.58.58 0 0 0 0 1.157.578.578 0 0 0 0-1.157Zm0-1.445a.578.578 0 0 0 0 1.157.578.578 0 0 0 0-1.157Zm0-1.448a.58.58 0 0 0 0 1.158.578.578 0 0 0 0-1.158Zm-1.438-.289a.576.576 0 0 0 .574-.578.576.576 0 0 0-.574-.578.576.576 0 0 0-.574.578c0 .319.257.578.574.578Zm-1.433-2.604a.579.579 0 0 0 0 1.158.579.579 0 0 0 0-1.158Zm-1.439-.289a.576.576 0 0 0 .574-.579.577.577 0 0 0-.574-.578.577.577 0 0 0-.575.578c0 .32.257.58.575.58Zm.001-2.604a.579.579 0 0 0 0 1.157.579.579 0 0 0 0-1.157Zm0-1.446a.579.579 0 0 0 0 1.158.58.58 0 0 0 0-1.158ZM42.68 45.27a.58.58 0 0 0 0 1.158.578.578 0 0 0 0-1.158Zm0 1.446a.58.58 0 0 0 0 1.158.578.578 0 0 0 0-1.158Zm0 1.448a.579.579 0 0 0 0 1.156.577.577 0 0 0 0-1.156Zm-4.308-33.56c.318 0 .575-.26.575-.579a.577.577 0 0 0-.575-.578.577.577 0 0 0-.574.578c0 .32.257.579.574.579Zm1.436 0c.317 0 .574-.26.574-.579a.577.577 0 0 0-.574-.578.577.577 0 0 0-.575.578c0 .32.258.579.575.579ZM41.244 12a.579.579 0 0 0 0 1.157.58.58 0 0 0 0-1.157Zm1.437 0a.579.579 0 0 0 0 1.157.578.578 0 0 0 0-1.157Zm1.436 0a.58.58 0 0 0 0 1.157.579.579 0 0 0 0-1.157Zm1.436 1.157a.576.576 0 0 0 .574-.578.577.577 0 0 0-.575-.579.577.577 0 0 0-.574.579c0 .32.257.578.575.578Zm1.436 0a.576.576 0 0 0 .574-.578.577.577 0 0 0-.574-.579.577.577 0 0 0-.575.579c0 .32.257.578.575.578Zm1.437 0a.576.576 0 0 0 .574-.578.577.577 0 0 0-.574-.579.577.577 0 0 0-.575.579c0 .32.257.578.575.578Zm-.001 1.447c.317 0 .575-.26.575-.579a.577.577 0 0 0-.575-.578.577.577 0 0 0-.574.578c0 .32.257.579.574.579Zm0 1.446a.577.577 0 0 0 .575-.578.577.577 0 0 0-.575-.579.577.577 0 0 0-.574.579c0 .32.257.579.574.579Zm-1.435.289a.58.58 0 0 0 0 1.158.578.578 0 0 0 0-1.158Zm-.001 2.604a.576.576 0 0 0 .574-.579.577.577 0 0 0-.574-.578.577.577 0 0 0-.575.578c0 .32.257.58.575.58Zm.001.29a.579.579 0 0 0 0 1.156.578.578 0 0 0 0-1.156Zm-1.438 0a.579.579 0 0 0 0 1.156.578.578 0 0 0 0-1.156Zm-1.435 1.445a.58.58 0 0 0 0 1.158.58.58 0 0 0 0-1.157Zm-1.437 0a.58.58 0 0 0 0 1.158.579.579 0 0 0 0-1.157Zm-1.436 1.448a.579.579 0 0 0 0 1.158.58.58 0 0 0 0-1.158Zm0-1.448a.579.579 0 0 0 0 1.158.58.58 0 0 0 0-1.157Zm0-1.445a.579.579 0 0 0 0 1.156.579.579 0 0 0 0-1.156Zm0-1.446a.578.578 0 0 0 0 1.156.578.578 0 0 0 0-1.157Zm0-1.448a.58.58 0 0 0 0 1.158.58.58 0 0 0 0-1.158Zm0-1.445a.578.578 0 0 0 0 1.157.58.58 0 0 0 0-1.157Zm-4.309 13.018a.578.578 0 0 0 0 1.156.577.577 0 0 0 0-1.156Zm4.309-14.465a.578.578 0 0 0 0 1.157.579.579 0 0 0 0-1.157Zm1.436 0a.578.578 0 0 0 0 1.157.578.578 0 0 0 0-1.157Zm1.437 0a.578.578 0 0 0 0 1.157.579.579 0 0 0 0-1.157Zm1.435 1.157c.317 0 .575-.26.575-.579a.577.577 0 0 0-.575-.578.577.577 0 0 0-.575.578c0 .32.258.579.575.579Zm1.437 0c.317 0 .574-.26.574-.579a.577.577 0 0 0-.574-.578.577.577 0 0 0-.575.578c0 .32.257.579.575.579Zm-4.309.29a.578.578 0 0 0 0 1.157.578.578 0 0 0 0-1.157Zm1.437 0a.578.578 0 0 0 0 1.157.579.579 0 0 0 0-1.157Zm1.435 1.156a.577.577 0 0 0 .575-.578.577.577 0 0 0-.575-.579.577.577 0 0 0-.575.579c0 .32.258.579.575.579Zm1.437 0a.576.576 0 0 0 .574-.578.577.577 0 0 0-.574-.579.577.577 0 0 0-.575.579c0 .32.257.579.575.579Zm-4.309.289a.58.58 0 0 0 0 1.158.579.579 0 0 0 0-1.158Zm1.437 0a.58.58 0 0 0 0 1.158.58.58 0 0 0 0-1.158Zm1.435 0a.58.58 0 0 0 0 1.158.578.578 0 0 0 0-1.158Zm-2.872 1.448a.578.578 0 0 0 0 1.156.578.578 0 0 0 0-1.157Zm1.437 0a.578.578 0 0 0 0 1.156.578.578 0 0 0 0-1.157Zm1.435 1.156a.577.577 0 0 0 .575-.579.577.577 0 0 0-.575-.578.577.577 0 0 0-.575.578c0 .32.258.58.575.58Zm-2.872.29a.579.579 0 0 0 0 1.156.578.578 0 0 0 0-1.156Zm1.437 0a.58.58 0 0 0 0 1.156.579.579 0 0 0 0-1.156Zm-11.488-2.894a.58.58 0 0 0 0 1.158.579.579 0 0 0 0-1.158Zm-2.873 2.604a.577.577 0 0 0 .575-.579.577.577 0 0 0-.575-.578.577.577 0 0 0-.574.578c0 .32.257.58.574.58Zm1.434 0a.576.576 0 0 0 .574-.579.577.577 0 0 0-.574-.578.577.577 0 0 0-.575.578c0 .32.257.58.575.58Zm-2.87.29a.579.579 0 0 0 0 1.156.578.578 0 0 0 0-1.156Zm1.436 0a.579.579 0 0 0 0 1.156.578.578 0 0 0 0-1.156Zm-1.436 1.445a.579.579 0 0 0 0 1.158.579.579 0 0 0 0-1.157Zm-1.435 1.448a.579.579 0 0 0 0 1.158.579.579 0 0 0 0-1.158Zm1.435 0a.578.578 0 0 0 0 1.158.58.58 0 0 0 0-1.158Zm-2.873 1.446a.58.58 0 0 0 0 1.157.578.578 0 0 0 0-1.157Zm1.438 0a.58.58 0 0 0 0 1.157.578.578 0 0 0 0-1.157Zm-1.438 1.447a.579.579 0 0 0 0 1.157.578.578 0 0 0 0-1.157Zm1.438 0a.579.579 0 0 0 0 1.157.578.578 0 0 0 0-1.157Zm-2.873 2.604c.317 0 .575-.26.575-.579a.577.577 0 0 0-.575-.579.577.577 0 0 0-.575.58c0 .319.258.578.575.578Zm1.435-1.158a.58.58 0 0 0 0 1.158.578.578 0 0 0 0-1.158Zm-1.436 2.603a.576.576 0 0 0 .574-.578.576.576 0 0 0-.574-.578.576.576 0 0 0-.573.578c0 .32.256.578.573.578Zm1.436-1.156a.579.579 0 0 0 0 1.156.577.577 0 0 0 0-1.156Zm-1.435 1.446a.579.579 0 0 0 0 1.158.579.579 0 0 0 0-1.158Zm1.435 0a.579.579 0 0 0 0 1.158.578.578 0 0 0 0-1.158Zm-1.435 2.605c.317 0 .575-.26.575-.579a.577.577 0 0 0-.575-.579.577.577 0 0 0-.575.579c0 .32.258.579.575.579Zm1.435-1.158a.579.579 0 0 0 0 1.158.578.578 0 0 0 0-1.158Zm-2.872 1.158c.317 0 .574-.26.574-.579a.577.577 0 0 0-.575-.579.577.577 0 0 0-.574.579c0 .32.257.579.575.579Zm1.437 1.445a.577.577 0 0 0 .575-.579.577.577 0 0 0-.575-.578.577.577 0 0 0-.575.578c0 .32.258.58.575.58Zm1.435-1.158a.579.579 0 0 0 0 1.157.577.577 0 0 0 0-1.156Zm-2.872 1.158a.576.576 0 0 0 .574-.579.577.577 0 0 0-.575-.578.577.577 0 0 0-.574.578c0 .32.257.58.575.58Zm1.437 1.448c.317 0 .575-.26.575-.579a.577.577 0 0 0-.575-.578.577.577 0 0 0-.575.578c0 .32.258.579.575.579Zm1.435-1.157a.578.578 0 0 0 0 1.157.579.579 0 0 0 0-1.157Zm-2.872 1.157c.317 0 .574-.26.574-.579a.577.577 0 0 0-.575-.578.577.577 0 0 0-.574.578c0 .32.257.579.575.579Zm1.437 1.446c.317 0 .575-.26.575-.579a.577.577 0 0 0-.575-.578.577.577 0 0 0-.575.578c0 .32.258.579.575.579Zm-1.437 0c.317 0 .574-.26.574-.579a.577.577 0 0 0-.575-.578.577.577 0 0 0-.574.578c0 .32.257.579.575.579Zm1.437.288a.579.579 0 0 0 0 1.158.578.578 0 0 0 0-1.157Zm12.923-15.912a.58.58 0 0 0 0 1.158.579.579 0 0 0 0-1.157Zm0-1.445a.58.58 0 0 0 0 1.156.578.578 0 0 0 0-1.156ZM35.5 17.787a.578.578 0 0 0 0 1.156.578.578 0 0 0 0-1.157Zm1.435 0a.578.578 0 0 0 0 1.156.578.578 0 0 0 0-1.157Zm-2.872-1.448a.58.58 0 0 0 0 1.158.579.579 0 0 0 0-1.158Zm-1.434 1.448a.578.578 0 0 0 0 1.156.578.578 0 0 0 0-1.157Zm1.434 1.156a.576.576 0 0 0 .574-.579.577.577 0 0 0-.574-.578.577.577 0 0 0-.575.578c0 .32.258.58.575.58Zm-1.434.29a.579.579 0 0 0 0 1.156.579.579 0 0 0 0-1.156Zm1.434 0a.579.579 0 0 0 0 1.156.578.578 0 0 0 0-1.156Zm-1.434 1.445a.579.579 0 0 0 0 1.158.579.579 0 0 0 0-1.157Zm-1.438-1.445a.578.578 0 0 0 0 1.156.579.579 0 0 0 0-1.156Zm-1.435 1.445a.58.58 0 0 0 0 1.158.579.579 0 0 0 0-1.157Zm1.435 0a.578.578 0 0 0 0 1.158.58.58 0 0 0 0-1.157Zm-1.435 1.448a.579.579 0 0 0 0 1.158.579.579 0 0 0 0-1.158Zm1.435 0a.578.578 0 0 0 0 1.158.58.58 0 0 0 0-1.158Zm-1.435 1.446a.579.579 0 0 0 0 1.157.578.578 0 0 0 0-1.157Zm-1.436 0a.579.579 0 0 0 0 1.157.578.578 0 0 0 0-1.157Zm0 2.603a.577.577 0 0 0 .574-.578.577.577 0 0 0-.574-.579.577.577 0 0 0-.575.579c0 .32.257.578.575.578Zm1.436 0a.577.577 0 0 0 .575-.578.577.577 0 0 0-.575-.579.577.577 0 0 0-.574.579c0 .32.257.578.574.578Zm-1.436 1.448c.317 0 .574-.26.574-.579a.577.577 0 0 0-.574-.579.577.577 0 0 0-.575.58c0 .319.257.578.575.578Zm-.001 1.445a.576.576 0 0 0 .574-.578.576.576 0 0 0-.574-.578.576.576 0 0 0-.574.578c0 .32.257.578.574.578Zm1.437-1.445c.317 0 .575-.26.575-.579a.577.577 0 0 0-.575-.579.577.577 0 0 0-.574.58c0 .319.257.578.574.578Zm0 1.445a.576.576 0 0 0 .574-.578.576.576 0 0 0-.573-.578.576.576 0 0 0-.574.578c0 .32.257.578.573.578Zm-2.871-2.603a.58.58 0 0 0 0 1.158.578.578 0 0 0 0-1.158Zm0 1.447a.579.579 0 0 0 0 1.156.577.577 0 0 0 0-1.156Zm0 1.446a.579.579 0 0 0 0 1.158.578.578 0 0 0 0-1.158Zm1.435 0a.578.578 0 0 0 0 1.158.579.579 0 0 0 0-1.158Zm1.436 0a.579.579 0 0 0 0 1.158.579.579 0 0 0 0-1.158Zm-1.436 2.605c.317 0 .574-.26.574-.579a.577.577 0 0 0-.574-.579.577.577 0 0 0-.575.579c0 .32.257.579.575.579Zm0 1.445a.576.576 0 0 0 .574-.579.577.577 0 0 0-.574-.578.577.577 0 0 0-.575.578c0 .32.257.58.575.58Zm1.436-1.445c.317 0 .575-.26.575-.579a.577.577 0 0 0-.575-.579.577.577 0 0 0-.574.579c0 .32.257.579.574.579Zm0 1.445a.577.577 0 0 0 .575-.579.577.577 0 0 0-.575-.578.577.577 0 0 0-.574.578c0 .32.257.58.574.58Zm-2.871-2.603a.579.579 0 0 0 0 1.158.578.578 0 0 0 0-1.158Zm0 1.445a.579.579 0 0 0 0 1.157.577.577 0 0 0 0-1.156Zm4.305-6.075a.577.577 0 0 0 .574-.578.577.577 0 0 0-.574-.579.577.577 0 0 0-.575.579c0 .32.257.578.575.578Zm0 1.448c.317 0 .574-.26.574-.579a.577.577 0 0 0-.574-.579.577.577 0 0 0-.575.58c0 .319.257.578.575.578Zm.001 1.445a.576.576 0 0 0 .574-.578.576.576 0 0 0-.574-.578.576.576 0 0 0-.574.578c0 .32.257.578.574.578Zm0 .29a.578.578 0 0 0 0 1.158.58.58 0 0 0 0-1.158Zm-.001 2.605c.317 0 .574-.26.574-.579a.577.577 0 0 0-.574-.579.577.577 0 0 0-.575.579c0 .32.257.579.575.579Zm1.439-5.498a.579.579 0 0 0 0 1.158.579.579 0 0 0 0-1.158Zm0 1.447a.579.579 0 0 0 0 1.156.578.578 0 0 0 0-1.156Zm0 1.446a.578.578 0 0 0 0 1.158.579.579 0 0 0 0-1.158Zm1.434-3.183a.577.577 0 0 0 .574-.578.577.577 0 0 0-.574-.579.577.577 0 0 0-.575.579c0 .32.258.578.575.578Zm0 1.448c.317 0 .574-.26.574-.579a.577.577 0 0 0-.574-.579.577.577 0 0 0-.575.58c0 .319.258.578.575.578Zm-.001 1.445a.576.576 0 0 0 .574-.578.576.576 0 0 0-.574-.578.576.576 0 0 0-.574.578c0 .32.257.578.574.578Zm1.438-4.049a.579.579 0 0 0 0 1.157.578.578 0 0 0 0-1.157Zm0-1.447a.58.58 0 0 0 0 1.157.578.578 0 0 0 0-1.157Zm-2.871 0a.579.579 0 0 0 0 1.157.579.579 0 0 0 0-1.157Zm1.434-1.446a.579.579 0 0 0 0 1.158.58.58 0 0 0 0-1.158Zm-1.434 20.251a.579.579 0 0 0 0 1.158.579.579 0 0 0 0-1.158Zm1.434 0a.579.579 0 0 0 0 1.158.579.579 0 0 0 0-1.158Zm1.437 0a.58.58 0 0 0 0 1.158.578.578 0 0 0 0-1.158Zm1.435 1.446a.579.579 0 0 0 0 1.157.578.578 0 0 0 0-1.157Zm1.437 0a.578.578 0 0 0 0 1.157.579.579 0 0 0 0-1.157Zm-5.743 0a.58.58 0 0 0 0 1.157.578.578 0 0 0 0-1.157Zm1.434 0a.58.58 0 0 0 0 1.157.578.578 0 0 0 0-1.157Zm1.437 0a.58.58 0 0 0 0 1.157.578.578 0 0 0 0-1.157Zm1.435 1.447a.58.58 0 0 0 0 1.158.578.578 0 0 0 0-1.158Zm1.437 1.157a.577.577 0 0 0 .575-.579.577.577 0 0 0-.575-.578.577.577 0 0 0-.574.578c0 .32.257.58.574.58Zm-5.743-1.157a.579.579 0 0 0 0 1.158.579.579 0 0 0 0-1.158Zm1.434 1.157a.576.576 0 0 0 .574-.579.577.577 0 0 0-.574-.578.577.577 0 0 0-.575.578c0 .32.258.58.575.58ZM35.5 45.27a.58.58 0 0 0 0 1.158.578.578 0 0 0 0-1.158Zm4.308 1.157a.576.576 0 0 0 .574-.579.577.577 0 0 0-.574-.578.577.577 0 0 0-.575.578c0 .32.258.58.575.58Zm-2.873.289a.58.58 0 0 0 0 1.158.578.578 0 0 0 0-1.158Zm1.437 0a.578.578 0 0 0 0 1.158.579.579 0 0 0 0-1.158Zm-4.309 0a.58.58 0 0 0 0 1.158.578.578 0 0 0 0-1.158Zm1.437 0a.58.58 0 0 0 0 1.158.578.578 0 0 0 0-1.158Zm4.307 0a.579.579 0 0 0 0 1.158.578.578 0 0 0 0-1.158Zm-2.872 1.448a.579.579 0 0 0 0 1.156.578.578 0 0 0 0-1.156Zm1.437 1.156a.576.576 0 0 0 .574-.578.576.576 0 0 0-.574-.578.576.576 0 0 0-.574.578c0 .319.257.578.574.578ZM35.5 48.164a.579.579 0 0 0 0 1.156.578.578 0 0 0 0-1.156Zm4.307 1.156a.576.576 0 0 0 .574-.578.576.576 0 0 0-.574-.578.576.576 0 0 0-.574.578c0 .319.257.578.574.578Zm-2.872.289a.58.58 0 0 0 0 1.158.578.578 0 0 0 0-1.158Zm1.437 1.158c.318 0 .575-.26.575-.579a.577.577 0 0 0-.575-.578.577.577 0 0 0-.574.578c0 .32.257.579.574.579Zm1.436 0c.317 0 .574-.26.574-.579a.577.577 0 0 0-.574-.578.577.577 0 0 0-.575.578c0 .32.258.579.575.579Zm-2.873.29a.579.579 0 0 0 0 1.157.578.578 0 0 0 0-1.157Zm1.437 1.157c.318 0 .575-.26.575-.58a.577.577 0 0 0-.575-.578.577.577 0 0 0-.574.579c0 .32.257.579.574.579Zm-1.437.288a.58.58 0 0 0 0 1.157.578.578 0 0 0 0-1.157Zm1.437 1.158c.318 0 .575-.26.575-.58a.577.577 0 0 0-.575-.578.577.577 0 0 0-.574.579c0 .32.257.578.574.578Zm0 .29a.578.578 0 0 0 0 1.158.58.58 0 0 0 0-1.158Z" fill="#1E2A3A"/></svg>