<svg width="36" height="24" fill="none" xmlns="http://www.w3.org/2000/svg"><g clip-path="url(#a)"><path d="M36 1.2H0v21.6h36V1.2Z" fill="#00247D"/><path d="m0 1.2 36 21.6L0 1.2Zm36 0L0 22.8 36 1.2Z" fill="#252525"/><path d="M36 1.2 0 22.8M0 1.2l36 21.6L0 1.2Z" stroke="#fff" stroke-width="4.32"/><path d="M18 1.2v21.6V1.2ZM0 12h36H0Z" fill="#252525"/><path d="M0 12h36M18 1.2v21.6V1.2Z" stroke="#fff" stroke-width="7.2"/><path d="M18 1.2v21.6V1.2ZM0 12h36H0Z" fill="#252525"/><path d="M0 12h36M18 1.2v21.6V1.2Z" stroke="#CF142B" stroke-width="4.32"/></g><defs><clipPath id="a"><rect width="36" height="24" rx="2" fill="#fff"/></clipPath></defs></svg>