<svg width="33" height="11" fill="none" xmlns="http://www.w3.org/2000/svg"><path fill-rule="evenodd" clip-rule="evenodd" d="M30.525 1.298h-1.983c-.616 0-1.074.162-1.345.753l-3.81 8.317h2.695s.44-1.118.539-1.363l3.287.004c.076.317.313 1.36.313 1.36h2.38l-2.076-9.07Zm-3.165 5.85 1.022-2.536c-.014.025.21-.525.342-.867l.173.783.594 2.62H27.36Zm-3.794.25c-.018 1.886-1.77 3.102-4.469 3.102-1.15-.011-2.259-.23-2.86-.483l.362-2.032.33.145c.843.339 1.39.476 2.417.476.737 0 1.527-.279 1.535-.886.004-.398-.33-.681-1.33-1.126-.975-.435-2.265-1.163-2.249-2.466.014-1.764 1.802-2.995 4.337-2.995.995 0 1.791.197 2.3.38l-.348 1.968-.23-.105a4.894 4.894 0 0 0-1.922-.347c-1.004 0-1.47.403-1.47.78-.006.425.543.705 1.441 1.126 1.483.646 2.167 1.433 2.156 2.464Zm-10.933-6.1L8.59 10.355l-2.715.005-2.297-7.57c1.652 1.02 3.06 2.636 3.555 3.762l.268.935 2.513-6.19 2.719-.001Zm1.038-.008h2.567l-1.606 9.076h-2.566L13.67 1.29Z" fill="#252525"/><path d="M.637.5.6.706c3.491.82 5.801 2.796 6.76 5.172l-.976-4.543C6.216.71 5.728.522 5.124.5H.636Z" fill="#252525"/></svg>